<svg xmlns="http://www.w3.org/2000/svg" viewBox="0 0 512 512" xml:space="preserve"><circle style="fill:#88c5cc" cx="256" cy="256" r="256"/><path style="fill:#ccc" d="M100 396c-15.436 0-28-12.564-28-28V140c0-15.436 8.564-24 24-24h316c15.436 0 28 12.564 28 28v224c0 15.436-12.564 28-28 28z"/><circle style="fill:#cc584c" cx="95.812" cy="140" r="8"/><circle style="fill:#ffd464" cx="119.812" cy="140" r="8"/><circle style="fill:#198058" cx="143.812" cy="140" r="8"/><path style="fill:#f5f5f5" d="M403.812 144c0 2.2-1.8 4-4 4h-232c-2.2 0-4-1.8-4-4v-8c0-2.2 1.8-4 4-4h232c2.2 0 4 1.8 4 4zM424 372c0 4.4-3.6 8-8 8H96c-4.4 0-8-3.6-8-8V172c0-4.4 3.6-8 8-8h320c4.4 0 8 3.6 8 8z"/><path style="fill:#406a80" d="M160 356c0 4.4-3.6 8-8 8h-40c-4.4 0-8-3.6-8-8V188c0-4.4 3.6-8 8-8h40c4.4 0 8 3.6 8 8zm240-176c4.4 0 8 3.6 8 8v40c0 4.408-3.6 8-8 8H184c-4.4 0-8-3.592-8-8v-40c0-4.4 3.6-8 8-8z"/><path style="fill:#b3b3b3" d="M176 248h232v8H176zm0 12h232v8H176zm0 12h232v8H176zm0 12h52v52h-52z"/><path style="fill:#e16b5a" d="M236 284h52v52h-52z"/><path style="fill:#b3b3b3" d="M296 284h52v52h-52zm60 0h52v52h-52z"/></svg>