<svg xmlns="http://www.w3.org/2000/svg" viewBox="0 0 512 512" xml:space="preserve"><path style="fill:#0f7986" d="M512 256.001C512 114.615 397.387 0 255.999 0 114.615 0 0 114.615 0 256.001S114.615 512 255.999 512C397.387 512 512 397.385 512 256.001"/><path style="fill:#4d4d4d" d="M79.027 20.989h187.924c2.959 0 5.37 2.41 5.37 5.37v360.959c0 2.959-2.41 5.37-5.37 5.37H79.027a5.38 5.38 0 0 1-5.37-5.37V26.359a5.38 5.38 0 0 1 5.37-5.37"/><path style="fill:#fad24d" d="M87.263 71.149h171.451a4.18 4.18 0 0 1 4.168 4.171v263.033a4.18 4.18 0 0 1-4.168 4.171H87.263a4.18 4.18 0 0 1-4.168-4.171V75.32a4.18 4.18 0 0 1 4.168-4.171"/><path style="fill:#828282" d="M127.861 43.935h90.243a3.764 3.764 0 0 1 3.749 3.751c0 2.059-1.684 3.754-3.749 3.754h-90.243c-2.062 0-3.751-1.695-3.751-3.754s1.69-3.751 3.751-3.751m45.127 311.073c7.292 0 13.207 5.914 13.207 13.207 0 7.292-5.914 13.207-13.207 13.207-7.295 0-13.209-5.914-13.209-13.207 0-7.296 5.914-13.207 13.209-13.207"/><path style="fill:#fff" d="M430.194 71.149H192.918v381.639h237.276z"/><path style="fill:#21d0c3" d="M430.194 71.149H192.918v26.328h237.276z"/><path style="fill:#fff" d="M360.263 78.47H205.527c-3.213 0-5.844 2.628-5.844 5.842s2.631 5.844 5.844 5.844h154.737c3.216 0 5.847-2.628 5.847-5.844-.001-3.213-2.632-5.842-5.848-5.842m20.009.85a4.993 4.993 0 1 1-.004 9.986 4.993 4.993 0 0 1 .004-9.986m18.679 0a4.992 4.992 0 1 1-.002 9.986 4.992 4.992 0 0 1 .002-9.986m18.68 0a4.992 4.992 0 1 1-.002 9.986 4.992 4.992 0 0 1 .002-9.986"/><path style="fill:#ecf0f1" d="M207.795 113.165h101.886v120.226H207.795zm114.454 97.641h49.234v4.714h-49.234zm-82.34 193.928h143.295v4.716H239.909zm-17.666-19.525h178.63v4.716h-178.63zm0-19.526h178.63v4.716h-178.63zm-14.448-41.446h178.63v4.716h-178.63zm0-19.526h178.63v4.716h-178.63zm0-19.526H351.09v4.716H207.795zm0-19.526h178.63v4.716h-178.63zm0-19.526h178.63v4.716h-178.63zm114.454-132.958h87.622v4.716h-87.622zm0 19.526h87.622v4.716h-87.622zm0 19.526h70.289v4.716h-70.289zm0 19.526h87.622v4.716h-87.622zm0 19.525h87.622v4.716h-87.622z"/><path style="fill:#21d0c3" d="M261.374 343.763h100.367v4.716H261.374z"/><path style="fill:#fed198" d="M437.304 231.303c-7.116-.701-11.698 4.978-13.973 11.769l-14.106 42.157-6.602-6.138-13.112-17.178-22.943-40.714-23.269-40.972c-3.646-6.415-11.84-8.953-18.052-5.241-6.209 3.709-8.509 11.706-4.878 18.128l39.78 70.321-2.935 1.899-8.585-16.803c-3.357-6.568-11.746-8.782-18.049-5.244-6.301 3.549-8.234 11.564-4.881 18.133l9.333 18.258-3.32 2.151-5.821-11.888c-3.242-6.62-11.84-8.95-18.044-5.241-6.211 3.712-8.121 11.508-4.878 18.133l6.539 13.362-3.982 2.578-3.612-6.668c-3.509-6.481-11.835-8.948-18.044-5.241-6.211 3.712-8.391 11.646-4.881 18.131l7.48 13.813 1.057 2.476 46.226 71.026c6.269 9.639 15.161 15.659 22.324 17.942 2.051.653 3.958 1.002 5.626 1.039l43.236 74.625 81.038-45.811-52.24-75.847c12.63-19.033 13.438-93.106 15.471-118.641.569-7.171-4.787-13.608-11.898-14.306z"/><path style="fill:#f0b97d" d="m479.519 443.746 6.452-3.646-52.24-75.847c12.632-19.033 13.438-93.106 15.471-118.641.102-1.285.013-2.55-.243-3.759-5.228 35.823-5.933 101.933-20.575 122.535l51.133 79.362z"/><path style="fill:#ff5b62" d="m467.986 399.16-91.454 53.189 19.379 38.663 96.254-54.415-24.179-37.441z"/><path style="fill:#ecf0f1" d="m455.505 384.199-86.132 49.514 9.973 16.882 86.132-49.512zm-59.692 71.611c-4.716 2.757-6.317 8.787-3.58 13.475s8.777 6.254 13.491 3.502c4.714-2.757 6.317-8.79 3.583-13.48-2.739-4.686-8.78-6.252-13.494-3.497"/><path style="fill:#fff" d="m322.225 189.841 5.579 10.143 15.384-8.69-5.574-10.148c-4.388-7.987-20.494 1.233-15.387 8.695zm106.079 50.768-3.365 13.47 17.254 4.574 3.365-13.469c2.188-8.756-15.087-13.257-17.254-4.575"/><path style="fill:#21d0c3" d="M77.505 163.849c28.612 0 51.805 23.196 51.805 51.805s-23.193 51.805-51.805 51.805c-28.609 0-51.802-23.196-51.802-51.805s23.195-51.805 51.802-51.805"/><path style="fill:#fff" d="M77.505 163.642c14.364 0 27.366 5.823 36.777 15.232 9.409 9.409 15.232 22.413 15.232 36.777 0 14.361-5.823 27.366-15.232 36.777-9.409 9.409-22.413 15.232-36.777 15.232-14.361 0-27.366-5.823-36.777-15.232-9.409-9.412-15.232-22.416-15.232-36.777 0-14.364 5.823-27.366 15.232-36.777 9.411-9.409 22.416-15.232 36.777-15.232m40.704 78.892c.291.158.49.42.572.714a49.4 49.4 0 0 0 8.36-26.4H107.46c-.155 7.132-1.569 14.243-4.244 20.903 6.015 1.145 11.226 2.737 14.993 4.783m-.47 2.212a1.13 1.13 0 0 1-.656-.139c-3.678-1.993-8.835-3.541-14.812-4.643a58 58 0 0 1-1.739 3.528c-4.677 8.701-11.72 16.326-21.123 21.771 12.953-.488 24.638-5.941 33.205-14.506a50 50 0 0 0 5.125-6.011m-42.136 20.52c-9.399-5.445-16.441-13.067-21.121-21.771a58 58 0 0 1-1.734-3.512c-5.967 1.102-11.127 2.644-14.831 4.624-.208.11-.433.152-.648.137a49.5 49.5 0 0 0 5.128 6.014c8.567 8.564 20.252 14.018 33.205 14.506zm-39.369-22.01c.081-.299.283-.561.58-.719 3.791-2.033 8.997-3.62 14.993-4.764-2.681-6.665-4.1-13.784-4.252-20.924h-19.68a49.4 49.4 0 0 0 8.363 26.403zm-8.361-28.764H47.55c.137-7.722 1.75-15.413 4.845-22.532-6.211-1.144-11.612-2.76-15.523-4.837a49.4 49.4 0 0 0-8.999 27.369m10.412-29.284c3.812 1.959 9.07 3.478 15.121 4.551q.56-1.15 1.17-2.277c4.677-8.59 11.677-16.095 21.003-21.44-12.948.496-24.62 5.943-33.184 14.506a50 50 0 0 0-4.11 4.66m41.143-19.165c9.328 5.346 16.328 12.85 21.003 21.44.412.759.802 1.524 1.181 2.296 6.062-1.076 11.321-2.597 15.111-4.569a50 50 0 0 0-4.11-4.661c-8.563-8.563-20.24-14.011-33.185-14.506m38.715 21.084c-3.884 2.093-9.288 3.712-15.518 4.856 3.09 7.114 4.701 14.799 4.837 22.511h19.678a49.4 49.4 0 0 0-8.997-27.367m-39.455-18.792v23.36c7.108-.047 14.172-.556 20.496-1.519a52 52 0 0 0-.821-1.569c-4.401-8.087-10.959-15.171-19.678-20.273h.003zm0 25.721v20.436h26.424c-.139-7.583-1.766-15.14-4.876-22.102-6.644 1.063-14.08 1.616-21.548 1.666m0 22.796v18.717c7.699.05 15.358.638 22.154 1.763 2.684-6.51 4.108-13.485 4.263-20.481h-26.42zm0 21.079v25.029c8.772-5.194 15.363-12.389 19.767-20.58q.748-1.393 1.411-2.822c-6.5-1.036-13.813-1.577-21.181-1.626zm-2.361 25.029v-25.029c-7.358.058-14.668.603-21.176 1.642.441.947.91 1.886 1.406 2.807 4.405 8.192 10.996 15.39 19.77 20.58m0-27.389v-18.717H49.909c.158 7.003 1.582 13.986 4.273 20.502 6.802-1.131 14.458-1.726 22.149-1.784zm0-21.079v-20.438c-7.459-.058-14.894-.617-21.54-1.682-3.119 6.964-4.748 14.529-4.884 22.12zm0-22.796v-23.36c-8.719 5.102-15.279 12.186-19.681 20.273a57 57 0 0 0-.81 1.553c6.335.964 13.388 1.479 20.491 1.534"/><path style="fill:#fff" d="m136.129 252.714 18.245 3.565 1.408.272-.433 1.372-6.046 19.03-2.437-.773 4.889-15.384c-3.578 2.431-7.549 4.758-11.817 6.916-16.769 8.482-38.22 14.379-58.892 13.589-20.805-.794-40.824-8.347-54.569-26.787-2.418-3.25-4.648-6.844-6.644-10.789l2.288-1.152c1.93 3.814 4.079 7.282 6.415 10.416 13.209 17.726 32.514 24.987 52.599 25.756 20.216.772 41.216-5.007 57.651-13.322 4.435-2.243 8.535-4.669 12.189-7.2l-15.337-2.993z"/><path style="fill:#828282" d="M99.578 43.18a4.725 4.725 0 0 1 4.724 4.727 4.72 4.72 0 0 1-4.724 4.724 4.72 4.72 0 0 1-4.724-4.724 4.725 4.725 0 0 1 4.724-4.727"/></svg>