<svg xmlns="http://www.w3.org/2000/svg" viewBox="0 0 512 512" xml:space="preserve"><circle style="fill:#006775" cx="256" cy="256" r="256"/><path style="fill:#055661" d="m510.098 288.978-93.86-93.86c-22.619-25.579-77.582-57.499-135.082-1.269l-27.482-26.424h-68.28v34.669l-22.197-23.253-43.97-7.187-21.351 31.498 51.369 54.117 6.342 49.89-37.417-38.263-31.498 43.336 198.5 198.5c116.902-13.318 209.916-105.064 224.924-221.542v-.212z"/><path style="fill:#00cc96" d="M348.168 161.083v.211c-45.661 0-85.192 36.783-85.192 85.192 0 35.938 22.62 68.07 56.443 80.119 9.302 3.171 18.815 4.862 28.75 4.862 45.661 0 85.192-36.783 85.192-85.192 0-47.986-39.108-85.192-85.193-85.192m63.63 43.337c6.764 10.57 11.204 23.042 12.049 36.36h-15.22c-.634-11.627-3.805-22.408-8.456-32.344h-.211c4.017-1.269 8.033-2.536 11.838-4.016m-6.13-8.245a104 104 0 0 1-10.782 3.171c-7.611-11.627-17.969-21.14-30.018-27.904 16.066 3.805 30.441 12.472 40.8 24.733m-33.401 54.963h27.482c-.634 9.301-2.96 18.179-6.553 26.424-7.399-1.902-15.009-3.171-22.831-4.228q1.585-10.78 1.902-22.196m-2.537-36.572a177 177 0 0 0 21.562-3.805c4.651 9.09 7.611 19.237 8.456 30.018h-27.482c-.21-9.089-1.056-17.757-2.536-26.213m16.066-13.106c-5.919 1.269-11.838 2.114-17.969 2.748-2.114-9.09-4.651-17.757-8.033-25.79 10.36 5.496 19.238 13.529 26.002 23.042m-26.213 13.741c1.269 8.244 2.114 16.7 2.325 25.368h-26.424c.211-8.667 1.057-17.124 2.325-25.156 3.171.211 6.342.211 9.513.211 4.016 0 8.033-.212 12.049-.423v.001zm-48.197-2.748a212 212 0 0 0 16.7 2.537q-1.903 12.366-2.537 26.002h-21.773c.634-10.147 3.382-19.66 7.611-28.327zm14.163 38.897c.211 7.399.846 14.798 1.902 21.986-6.131.634-12.049 1.48-17.757 2.748-3.171-7.611-5.285-16.066-5.919-24.733zm3.382 32.131c1.691 8.878 4.228 17.335 7.187 25.156-8.667-6.131-16.277-14.164-21.773-23.254a172 172 0 0 1 14.586-1.902m1.057-78.639c-4.44-.423-8.878-1.057-13.106-1.691 5.285-7.61 11.838-14.375 19.448-19.66-2.537 6.764-4.651 13.952-6.342 21.351m9.726.211.047.001c2.114-10.068 5.262-19.509 8.831-28.116 3.593 8.667 6.764 18.18 8.878 28.115-3.383.211-6.765.211-10.147.211-2.521 0-5.042-.208-7.563-.21l-.047.211zm-3.595-34.456c1.057.211 2.325.423 3.382.634-13.106 7.186-24.099 17.545-31.921 30.018-6.131-1.269-12.049-2.96-17.546-4.862 11.628-13.53 27.693-23.042 46.085-25.79m-52.215 34.034c5.919 2.325 12.26 4.228 18.815 5.919-4.228 9.302-6.976 19.448-7.611 30.23h-23.253c.845-13.318 5.284-25.58 12.049-36.149m-12.049 46.507h23.253c.634 9.302 2.748 18.391 6.131 26.635l-.212.211c-6.764 1.691-13.106 3.805-19.237 6.131-5.707-9.723-9.301-20.927-9.935-32.977m64.053 70.394c-19.66-3.17-36.995-13.74-48.621-28.961 5.708-2.114 11.838-3.805 18.18-5.285 7.822 14.164 19.66 25.79 33.823 33.612-1.057.211-2.326.423-3.382.634m12.472-6.975c-4.202-9.875-7.358-20.588-9.68-32.134q-.022 0-.044.003h-.001.001v-.212l.044.209c2.735-.208 5.677-.208 8.411-.208 3.594 0 7.399.211 10.993.211-2.325 11.414-5.496 22.195-9.724 32.131m-1.268-42.702c-3.383 0-6.765 0-10.147.211-.845-6.765-1.48-13.952-1.691-21.139v-.001.001h26.213c-.211 7.398-.634 14.375-1.691 21.351-4.228-.212-8.457-.423-12.684-.423m21.773 11.838c6.764.634 13.318 1.902 19.448 3.171-6.975 10.993-16.911 20.294-28.326 26.424 3.805-9.302 6.764-19.237 8.878-29.595m-3.804 36.782c13.317-7.399 24.521-18.391 32.132-31.497 3.805 1.057 7.611 2.325 11.204 3.593-10.57 13.74-25.791 23.888-43.336 27.904m36.782-40.587c3.805-8.878 6.342-18.602 6.976-28.75h15.22c-.846 12.048-4.44 23.253-10.147 32.977-4.016-1.479-8.032-2.959-12.049-4.227"/><path style="fill:#00cc96" d="M352.397 209.914c21.173 0 38.476 17.303 38.476 38.476s-17.303 38.476-38.476 38.476-38.476-17.303-38.476-38.476 17.302-38.476 38.476-38.476"/><path style="fill:#f7f7f8" d="m439.068 370.366-41.01-71.24c-1.268-1.903-3.805-2.537-5.708-1.48l-1.691 1.057-6.342-10.782v.001h-.213c9.513-7.61 16.277-18.391 18.391-31.286 4.651-27.481-13.952-53.694-41.645-58.345-27.481-4.651-53.694 13.952-58.345 41.645-4.651 27.481 13.952 53.694 41.645 58.345 9.302 1.48 18.815.422 27.059-2.96l6.342 10.782-1.691 1.057c-1.903 1.268-2.537 3.805-1.48 5.708l41.011 71.24c1.268 1.903 3.805 2.537 5.708 1.48l16.489-9.513c1.903-1.269 2.537-3.807 1.48-5.709M353.25 284.25c-20.227 0-36.625-16.398-36.625-36.625S333.023 211 353.25 211s36.625 16.398 36.625 36.625-16.398 36.625-36.625 36.625"/><path style="fill:#f7f7f8" d="M329.142 241.837c-.211 1.48-1.48 2.325-2.748 2.114-1.057-.211-1.902-1.269-1.902-2.325 0-.423.211-.846.211-1.48 2.537-15.431 17.335-26.002 32.766-23.464.423 0 .846.211 1.269.211h.211c1.48.211 2.325 1.48 2.114 2.96-.211 1.269-1.48 2.325-2.96 2.114-.423-.211-1.057-.211-1.48-.211-12.684-2.114-24.944 6.553-27.059 19.237 0 .211 0 .423-.211.846h-.212z"/><path style="fill:#e84f4f" d="m392.562 297.433-15.009 8.667-1.691 1.057c-1.902 1.057-2.537 3.594-1.48 5.708l41.011 71.24c1.057 1.902 3.594 2.537 5.708 1.48l16.489-9.513c1.902-1.057 2.537-3.594 1.48-5.708l-41.01-71.24c-1.057-1.902-3.382-2.537-5.285-1.691z"/><path style="fill:#c94545" d="m390.447 298.702 1.691-1.057c1.902-1.057 4.44-.423 5.708 1.48l41.011 71.24c1.057 1.902.423 4.44-1.48 5.708l-8.244 4.862-44.604-78.85z"/><path style="fill:#00cc96" d="M168.905 214.778v-6.342c0-12.684-1.269-21.773-3.805-27.059-2.537-5.285-7.399-9.724-15.009-13.318-7.611-3.382-16.7-5.285-27.693-5.285-9.935 0-18.18 1.48-25.368 4.862q-10.464 4.757-15.22 13.318c-4.756 8.561-4.651 14.586-4.651 26.848 0 8.456 1.057 15.432 3.382 20.928 2.114 5.496 5.073 9.724 8.244 12.895 3.382 3.171 10.147 8.033 20.506 15.009 10.358 6.764 16.7 11.627 19.448 14.586q3.805 4.44 3.805 18.391c0 4.228-.634 7.399-2.114 9.724-1.269 2.114-3.382 3.171-6.131 3.171q-4.122 0-5.708-2.537c-1.586-2.537-1.691-5.496-1.691-11.627v-19.447H78.216v10.569c0 12.049 1.269 21.351 3.594 27.693 2.537 6.553 7.611 11.838 15.431 16.066s17.335 6.342 28.539 6.342c10.147 0 19.026-1.902 26.635-5.496 7.611-3.594 12.684-8.244 15.431-13.529 2.748-5.496 4.016-13.74 4.016-25.156 0-15.644-2.325-27.059-7.187-34.035s-16.489-16.066-34.88-27.059c-6.342-3.805-10.358-7.187-11.838-9.724-1.48-2.748-2.114-6.764-2.114-12.049 0-4.228.634-7.187 1.902-9.302s3.171-3.171 5.708-3.171c2.325 0 4.016.846 4.862 2.325 1.057 1.48 1.48 5.073 1.48 10.57v11.838h39.11zm16.7-48.621v160.026h72.297v-31.921H227.25v-35.304h26.002v-30.441H227.25v-30.652h27.693v-31.921h-69.338z"/></svg>