<?xml version="1.0" encoding="UTF-8"?>
<svg id="Layer_2" data-name="Layer 2" xmlns="http://www.w3.org/2000/svg" viewBox="0 0 1033.89 374.51">
  <defs>
    <style>
      .cls-1, .cls-2, .cls-3, .cls-4, .cls-5 {
        stroke: #000;
        stroke-miterlimit: 10;
      }

      .cls-1, .cls-6, .cls-4 {
        fill: #000;
      }

      .cls-1, .cls-5 {
        stroke-width: 6px;
      }

      .cls-2 {
        stroke-width: 2px;
      }

      .cls-2, .cls-3, .cls-5 {
        fill: none;
      }

      .cls-3 {
        stroke-width: 4px;
      }

      .cls-6 {
        stroke-width: 0px;
      }

      .cls-4 {
        stroke-width: 7px;
      }
    </style>
  </defs>
  <g id="Layer_1-2" data-name="Layer 1">
    <g>
      <g>
        <path class="cls-6" d="M88.87,234.98L22.25,85.4h18.4l36.17,82.22c13.3,30.27,18.52,43.53,21.39,51.6h.42c2.31-6.88,10.41-25.54,19.29-46.42l38.94-87.4h17.99l-67.68,149.57h-18.3Z"/>
        <path class="cls-6" d="M215.35,85.4v85.14c0,41.28,24.82,52.86,48.74,52.86,29.63,0,47.1-14.23,47.1-52.86v-85.14h16.84v84.49c0,49.57-25.38,68.23-64.64,68.23s-64.89-19.71-64.89-66.37v-86.35h16.84Z"/>
        <path class="cls-6" d="M479.98,163.49h-91.47v56.8h100.71l-2.47,14.68h-115.08V85.4h113.07v14.68h-96.23v48.73h91.47v14.68Z"/>
        <path class="cls-6" d="M553.38,234.98l-47.51-149.57h17.85c11.72,37.48,36.41,114.79,39.59,132.7h.21c3.81-19.39,29.77-96.03,42.07-132.7h17.39c10.97,33.75,37.84,117.4,40.8,132.32h.24c4.91-21.05,30.55-96.91,42.59-132.32h17.05l-50.91,149.57h-18.58c-11-34.28-37.28-114.79-40.74-131.37h-.21c-3.56,17.29-28.93,92.81-41.84,131.37h-18.02Z"/>
        <path class="cls-6" d="M858.4,163.49h-91.47v56.8h100.71l-2.47,14.68h-115.08V85.4h113.07v14.68h-96.23v48.73h91.47v14.68Z"/>
        <path class="cls-6" d="M899.4,85.4h69.01c31.01,0,48.07,13.44,48.07,37.34,0,19.09-13.11,28.68-24.8,31.85,13.26,3.39,31.11,12.61,31.11,36.81,0,30.47-25.52,43.57-52.39,43.57h-71V85.4ZM963.78,147.99c23.02,0,34.95-8.03,34.95-24.09,0-18.86-15.29-24.16-34.03-24.16h-48.56v48.24h47.64ZM916.14,220.66h49.46c18.66,0,39.3-5.72,39.3-28.82,0-19.67-15.89-29.54-42.09-29.54h-46.67v58.36Z"/>
      </g>
      <g>
        <ellipse class="cls-3" cx="469.2" cy="340.92" rx="33.13" ry="31.6"/>
        <ellipse class="cls-3" cx="564.66" cy="340.92" rx="33.13" ry="31.6"/>
        <path class="cls-3" d="M531.53,272.27v53.72h-29.19l.75-53.72c4.22-.27,8.85-.44,13.84-.45,5.28,0,10.17.17,14.6.45Z"/>
        <path class="cls-3" d="M440.43,325.6c7.58-22.18,15.16-44.35,22.73-66.53.86-.79,7.95-7.12,19.18-6.72,8.94.32,17.01,4.8,20.75,11.49-.03,5.68-.05,11.35-.08,17.03"/>
        <path class="cls-3" d="M531.53,281.01v-16.56c2.63-6.65,10.13-11.42,18.9-12.04,8.15-.58,16.11,2.51,20.53,7.95,7.49,21.63,14.98,43.27,22.48,64.9"/>
        <line class="cls-3" x1="501.68" y1="351.14" x2="532.19" y2="351.14"/>
        <ellipse class="cls-2" cx="564.66" cy="340.92" rx="26.25" ry="25.04"/>
        <path class="cls-6" d="M544.42,337.59c1.84-8.15,8.52-14.67,17.1-14.97,1.6-.06,1.61-2.56,0-2.5-9.66.34-17.41,7.53-19.51,16.8-.35,1.57,2.06,2.24,2.41.66h0Z"/>
        <ellipse class="cls-2" cx="469.2" cy="340.92" rx="26.25" ry="25.04"/>
        <path class="cls-6" d="M449.11,337.59c1.87-8.2,8.63-14.67,17.24-14.97,1.6-.05,1.61-2.55,0-2.5-9.69.33-17.53,7.48-19.65,16.8-.36,1.57,2.05,2.24,2.41.66h0Z"/>
      </g>
      <g>
        <line class="cls-4" x1="614.02" y1="329.32" x2="1033.89" y2="329.32"/>
        <line class="cls-5" x1="1033.89" y1="3" y2="3"/>
        <line class="cls-1" y1="329.32" x2="417.44" y2="329.32"/>
      </g>
    </g>
  </g>
</svg>